<svg xmlns="http://www.w3.org/2000/svg" width="256" height="256" viewBox="0 0 256 256">
  <title>suited-man · chart-lilac</title>
  <defs><linearGradient id="g" x1="0" y1="0" x2="0.35" y2="1">
    <stop offset="0" stop-color="#ffffff" stop-opacity="0.24"></stop>
    <stop offset="0.56" stop-color="#ffffff" stop-opacity="0"></stop>
  </linearGradient></defs>
  <rect width="256" height="256" rx="77" fill="#9671F1"></rect>
  <rect width="256" height="256" rx="77" fill="url(#g)"></rect>
  <g transform="translate(59 59) scale(5.75)" fill="none" stroke="#ffffff" stroke-width="2" stroke-linecap="round" stroke-linejoin="round"><ellipse cx="12" cy="6" rx="3.4" ry="4"></ellipse><path d="M4 21v-1c0-3.6 2.4-6 5.4-6.5"></path><path d="M20 21v-1c0-3.6-2.4-6-5.4-6.5"></path><path d="M9.3 12.8 12 15.2 14.7 12.8"></path><path d="M12 15.2 10.9 16.5 11.5 17.7 11 21 12 21.9 13 21 12.5 17.7 13.1 16.5z"></path><path d="M15.8 17.2h2.2"></path></g>
</svg>