<svg xmlns="http://www.w3.org/2000/svg" width="256" height="256" viewBox="0 0 256 256">
  <title>shush · Chart Blue</title>
  <defs><linearGradient id="g" x1="0" y1="0" x2="0.35" y2="1">
    <stop offset="0" stop-color="#ffffff" stop-opacity="0.24"></stop>
    <stop offset="0.56" stop-color="#ffffff" stop-opacity="0"></stop>
  </linearGradient></defs>
  <rect width="256" height="256" rx="77" fill="#12B1FF"></rect>
  <rect width="256" height="256" rx="77" fill="url(#g)"></rect>
  <g transform="translate(59 59) scale(5.75)" fill="none" stroke="#ffffff" stroke-width="2" stroke-linecap="round" stroke-linejoin="round"><path d="M3.5 8.2C7 3.5 17 3.5 20.5 8.2 17 12.9 7 12.9 3.5 8.2z"></path><path d="M6.7 8.1h2.6"></path><path d="M14.7 8.1h2.6"></path><path d="M10.4 14.5V8.5a1.6 1.6 0 0 1 3.2 0V14"></path><path d="M13.6 13.5a1.5 1.5 0 0 1 3 0v3a4.5 4.5 0 0 1-4.5 4.5 4.3 4.3 0 0 1-3.05-1.26L7.2 18.3a1.5 1.5 0 0 1 2.12-2.12l1.08 1.08"></path><path d="M13.6 15.6h2.5"></path><path d="M13.3 17.9h2.8"></path></g>
</svg>