<svg xmlns="http://www.w3.org/2000/svg" width="256" height="256" viewBox="0 0 256 256">
  <title>win · teal</title>
  <defs><linearGradient id="g" x1="0" y1="0" x2="0.35" y2="1">
    <stop offset="0" stop-color="#ffffff" stop-opacity="0.24"></stop>
    <stop offset="0.56" stop-color="#ffffff" stop-opacity="0"></stop>
  </linearGradient></defs>
  <rect width="256" height="256" rx="77" fill="#2CEEF0"></rect>
  <rect width="256" height="256" rx="77" fill="url(#g)"></rect>
  <g transform="translate(59 59) scale(5.75)" fill="none" stroke="#1E293B" stroke-width="2" stroke-linecap="round" stroke-linejoin="round"><path d="M6 9H4.5a2.5 2.5 0 0 1 0-5H6"></path><path d="M18 9h1.5a2.5 2.5 0 0 0 0-5H18"></path><path d="M4 22h16"></path><path d="M10 14.66V17c0 .55-.47.98-.97 1.21C7.85 18.75 7 20.24 7 22"></path><path d="M14 14.66V17c0 .55.47.98.97 1.21C16.15 18.75 17 20.24 17 22"></path><path d="M18 2H6v7a6 6 0 0 0 12 0V2Z"></path></g>
</svg>