<svg xmlns="http://www.w3.org/2000/svg" width="256" height="256" viewBox="0 0 256 256">
  <title>new · teal</title>
  <defs><linearGradient id="g" x1="0" y1="0" x2="0.35" y2="1">
    <stop offset="0" stop-color="#ffffff" stop-opacity="0.24"></stop>
    <stop offset="0.56" stop-color="#ffffff" stop-opacity="0"></stop>
  </linearGradient></defs>
  <rect width="256" height="256" rx="77" fill="#2CEEF0"></rect>
  <rect width="256" height="256" rx="77" fill="url(#g)"></rect>
  <g transform="translate(59 59) scale(5.75)" fill="none" stroke="#1E293B" stroke-width="2" stroke-linecap="round" stroke-linejoin="round"><path d="M12.586 2.586A2 2 0 0 0 11.172 2H4a2 2 0 0 0-2 2v7.172a2 2 0 0 0 .586 1.414l8.704 8.704a2.426 2.426 0 0 0 3.42 0l6.58-6.58a2.426 2.426 0 0 0 0-3.42z"></path><path d="M7.5 7.5h.01"></path></g>
</svg>