<svg xmlns="http://www.w3.org/2000/svg" width="256" height="256" viewBox="0 0 256 256">
  <title>ai · teal</title>
  <defs><linearGradient id="g" x1="0" y1="0" x2="0.35" y2="1">
    <stop offset="0" stop-color="#ffffff" stop-opacity="0.24"></stop>
    <stop offset="0.56" stop-color="#ffffff" stop-opacity="0"></stop>
  </linearGradient></defs>
  <rect width="256" height="256" rx="77" fill="#2CEEF0"></rect>
  <rect width="256" height="256" rx="77" fill="url(#g)"></rect>
  <g transform="translate(59 59) scale(5.75)" fill="none" stroke="#1E293B" stroke-width="2" stroke-linecap="round" stroke-linejoin="round"><path d="M9.94 15.5A2 2 0 0 0 8.5 14.06l-6.14-1.58a.5.5 0 0 1 0-.96L8.5 9.94A2 2 0 0 0 9.94 8.5l1.58-6.14a.5.5 0 0 1 .96 0L14.06 8.5A2 2 0 0 0 15.5 9.94l6.14 1.58a.5.5 0 0 1 0 .96L15.5 14.06a2 2 0 0 0-1.44 1.44l-1.58 6.14a.5.5 0 0 1-.96 0z"></path><path d="M20 3v4"></path><path d="M22 5h-4"></path><path d="M4 17v2"></path><path d="M5 18H3"></path></g>
</svg>