<svg xmlns="http://www.w3.org/2000/svg" width="256" height="256" viewBox="0 0 256 256">
  <title>graduate · pink</title>
  <defs><linearGradient id="g" x1="0" y1="0" x2="0.35" y2="1">
    <stop offset="0" stop-color="#ffffff" stop-opacity="0.24"></stop>
    <stop offset="0.56" stop-color="#ffffff" stop-opacity="0"></stop>
  </linearGradient></defs>
  <rect width="256" height="256" rx="77" fill="#FF107A"></rect>
  <rect width="256" height="256" rx="77" fill="url(#g)"></rect>
  <g transform="translate(59 59) scale(5.75)" fill="none" stroke="#ffffff" stroke-width="2" stroke-linecap="round" stroke-linejoin="round"><path d="M21.42 10.922a1 1 0 0 0-.019-1.838L12.83 5.18a2 2 0 0 0-1.66 0L2.6 9.08a1 1 0 0 0 0 1.832l8.57 3.908a2 2 0 0 0 1.66 0z"></path><path d="M22 10v6"></path><path d="M6 12.5V16a6 3 0 0 0 12 0v-3.5"></path></g>
</svg>