<svg xmlns="http://www.w3.org/2000/svg" width="256" height="256" viewBox="0 0 256 256">
  <title>like · pink</title>
  <defs><linearGradient id="g" x1="0" y1="0" x2="0.35" y2="1">
    <stop offset="0" stop-color="#ffffff" stop-opacity="0.24"></stop>
    <stop offset="0.56" stop-color="#ffffff" stop-opacity="0"></stop>
  </linearGradient></defs>
  <rect width="256" height="256" rx="77" fill="#FF107A"></rect>
  <rect width="256" height="256" rx="77" fill="url(#g)"></rect>
  <g transform="translate(59 59) scale(5.75)" fill="none" stroke="#ffffff" stroke-width="2" stroke-linecap="round" stroke-linejoin="round"><path d="M7 10v12"></path><path d="M15 5.88 14 10h5.83a2 2 0 0 1 1.92 2.56l-2.33 8A2 2 0 0 1 17.5 22H4a2 2 0 0 1-2-2v-8a2 2 0 0 1 2-2h2.76a2 2 0 0 0 1.79-1.11L12 2a3.13 3.13 0 0 1 3 3.88Z"></path></g>
</svg>